# xmcd
#
# Track frame offsets:
#	150
#	18162
#	35825
#	53157
#	67847
#	86202
#	106590
#	122572
#	139717
#	159977
#
# Disc length: 2468 seconds
#
# Revision: 2
# Processed by: cddbd v1.5.1PL0 Copyright (c) Steve Scherf et al.
# Submitted via: audiograbber 1.83.01
#
DISCID=7709a20a
DTITLE=Jack Semple - Sneakin' Suspicion
DYEAR=1994
DGENRE=Blues
TTITLE0=When My Baby Comes Back
TTITLE1=Brother
TTITLE2=How Will The Story End?
TTITLE3=Melenzan
TTITLE4=Love Wars
TTITLE5=I Love The Blues
TTITLE6=Correct Me If I'm Wrong...But
TTITLE7=Leave This World
TTITLE8=Dear John
TTITLE9=Sneakin' Suspicion
EXTD=
EXTT0=
EXTT1=
EXTT2=
EXTT3=
EXTT4=
EXTT5=
EXTT6=
EXTT7=
EXTT8=
EXTT9=
PLAYORDER=
